<svg width="1177" height="191" viewBox="0 0 1177 191" fill="none" xmlns="http://www.w3.org/2000/svg">
<path d="M275.024 41.2335C252.883 41.6522 233.38 52.0886 220.603 68.033L149.866 143.6C147.613 146.048 144.717 147.562 141.692 148.174V148.238C133.099 149.333 126.63 156.806 126.952 165.632C127.306 174.973 135.127 182.253 144.46 181.899C145.94 181.834 147.324 181.577 148.675 181.19C157.783 179.225 166.44 174.587 173.263 167.21L207.376 131.231C215.808 162.733 245.062 185.377 279.015 184.121C318.052 182.672 348.593 150.139 347.789 111.228C346.952 71.9627 314.255 40.4604 275.024 41.2335ZM312.742 112.903C312.581 131.811 297.874 147.658 279.047 149.237C257.452 151.041 238.98 133.872 239.173 112.162C239.334 93.2542 254.041 77.4064 272.868 75.828C294.462 74.0242 312.935 91.1927 312.742 112.903Z" fill="#385AF0"/>
<path d="M40.6062 130.715C50.1508 130.715 57.8883 122.971 57.8883 113.418C57.8883 103.865 50.1508 96.1209 40.6062 96.1209C31.0616 96.1209 23.3242 103.865 23.3242 113.418C23.3242 122.971 31.0616 130.715 40.6062 130.715Z" fill="#385AF0"/>
<path d="M183.078 67.582L168.049 53.5702C148.836 35.7254 118.81 36.8206 100.98 56.0505L77.4551 81.4005C59.6259 100.63 60.7201 130.683 79.9331 148.528L105.261 172.074C112.598 178.871 121.481 182.929 130.685 184.25C130.556 184.153 130.428 184.025 130.299 183.896C124.731 179.676 121.03 173.105 120.741 165.6C120.451 158.095 123.637 151.298 128.851 146.692C127.628 146.016 126.469 145.178 125.375 144.18L106.226 126.367C99.0817 119.732 98.6634 108.554 105.293 101.403L123.09 82.238C129.72 75.0871 140.887 74.6684 148.031 81.3039L159.521 91.9979C162.771 95.5411 167.502 97.7314 172.683 97.5382C182.081 97.1838 189.418 89.2922 189.064 79.8866C188.871 74.8939 186.554 70.5132 183.046 67.5498L183.078 67.582Z" fill="#385AF0"/>
<path d="M424.41 54.1057H462.327V66.8865C470.137 56.3778 481.782 51.1235 497.261 51.1235C506.918 51.1235 515.438 53.3956 522.823 57.9399C530.207 62.3422 535.888 68.7327 539.864 77.1112C543.982 85.4898 546.041 95.3595 546.041 106.72V178.932H508.125V113.111C508.125 103.596 506.208 96.3536 502.373 91.3832C498.681 86.2709 493.285 83.7147 486.184 83.7147C478.8 83.7147 472.977 86.4839 468.717 92.0223C464.457 97.5606 462.327 105.158 462.327 114.815V178.932H424.41V54.1057Z" fill="#385AF0"/>
<path d="M626.008 181.914C614.222 181.914 603.713 179.074 594.482 173.394C585.252 167.855 578.08 160.116 572.968 150.175C567.855 140.235 565.299 129.016 565.299 116.519C565.299 104.022 567.855 92.8033 572.968 82.8626C578.08 72.922 585.252 65.1824 594.482 59.6441C603.713 53.9637 614.222 51.1235 626.008 51.1235C642.055 51.1235 653.984 56.3778 661.795 66.8865V54.1057H699.711V178.932H661.795V166.151C653.984 176.66 642.055 181.914 626.008 181.914ZM631.973 149.536C641.203 149.536 648.588 146.483 654.126 140.377C659.665 134.128 662.434 126.176 662.434 116.519C662.434 106.862 659.665 98.9807 654.126 92.8743C648.588 86.6259 641.203 83.5017 631.973 83.5017C623.026 83.5017 615.855 86.6259 610.458 92.8743C605.062 98.9807 602.364 106.862 602.364 116.519C602.364 126.176 605.062 134.128 610.458 140.377C615.855 146.483 623.026 149.536 631.973 149.536Z" fill="#385AF0"/>
<path d="M782.649 181.914C770.862 181.914 760.353 179.074 751.123 173.394C741.892 167.855 734.721 160.116 729.608 150.175C724.496 140.235 721.94 129.016 721.94 116.519C721.94 104.022 724.496 92.8033 729.608 82.8626C734.721 72.922 741.892 65.1824 751.123 59.6441C760.353 53.9637 770.862 51.1235 782.649 51.1235C798.696 51.1235 810.625 56.3778 818.435 66.8865V0H856.352V178.932H818.435V166.151C810.625 176.66 798.696 181.914 782.649 181.914ZM788.613 149.536C797.844 149.536 805.228 146.483 810.767 140.377C816.305 134.128 819.074 126.176 819.074 116.519C819.074 106.862 816.305 98.9807 810.767 92.8743C805.228 86.6259 797.844 83.5017 788.613 83.5017C779.667 83.5017 772.495 86.6259 767.099 92.8743C761.702 98.9807 759.004 106.862 759.004 116.519C759.004 126.176 761.702 134.128 767.099 140.377C772.495 146.483 779.667 149.536 788.613 149.536Z" fill="#385AF0"/>
<path d="M1082.97 45.3565C1061.45 45.771 1042.5 55.8886 1030.08 71.3759L961.33 144.762C959.125 147.136 956.337 148.605 953.379 149.208V149.265C945.032 150.32 938.721 157.592 939.041 166.165C939.38 175.228 946.992 182.312 956.073 181.973C957.505 181.916 958.862 181.671 960.162 181.276C969.036 179.373 977.42 174.851 984.052 167.71L1017.21 132.76C1025.41 163.339 1053.86 185.326 1086.83 184.102C1124.76 182.689 1154.45 151.111 1153.66 113.316C1152.89 75.2006 1121.1 44.6217 1082.97 45.3565ZM1119.63 114.955C1119.46 133.325 1105.18 148.718 1086.87 150.226C1065.88 151.978 1047.92 135.303 1048.11 114.239C1048.28 95.8692 1062.56 80.4761 1080.88 78.9688C1101.86 77.2166 1119.82 93.8909 1119.63 114.955Z" fill="#385AF0"/>
<path d="M993.605 70.9434V70.9058L979.003 57.3214C960.331 39.9877 931.147 41.0616 913.813 59.733L890.94 84.3582C873.606 103.03 874.68 132.214 893.352 149.548L917.977 172.421C925.099 179.034 933.747 182.953 942.677 184.253C942.545 184.14 942.432 184.027 942.3 183.914C936.893 179.826 933.276 173.42 933.012 166.128C932.748 158.837 935.838 152.261 940.887 147.777C939.7 147.118 938.57 146.307 937.515 145.347L918.9 128.069C911.948 121.626 911.552 110.773 917.996 103.821L935.273 85.2061C941.716 78.2538 952.588 77.8581 959.521 84.3017L970.694 94.6831C973.859 98.131 978.456 100.241 983.506 100.053C992.644 99.7137 999.766 92.0454 999.426 82.9075C999.238 78.0653 996.996 73.8073 993.586 70.9058L993.605 70.9434Z" fill="#385AF0"/>
</svg>
